#N canvas 1204 18 1224 754 10;
#X floatatom 535 155 5 0 0 0 - - -, f 5;
#X obj 535 80 ctlin 22 0;
#X floatatom 350 360 5 0 0 0 - - -, f 5;
#X floatatom 395 360 5 0 0 0 - - -, f 5;
#X text 535 60 Y Data;
#X obj 550 720 dac~ 1 2;
#X obj 375 520 readsf~;
#X msg 350 440 1;
#X obj 535 130 line;
#X floatatom 495 360 5 0 0 0 - - -, f 5;
#X floatatom 540 360 5 0 0 0 - - -, f 5;
#X obj 520 520 readsf~;
#X msg 550 440 1;
#X obj 625 80 ctlin 21 0;
#X text 625 60 X Data;
#X msg 395 440 open ANXIETYII.wav, f 7;
#X msg 495 440 open ANXIETYI.wav, f 7;
#X floatatom 625 155 5 0 0 0 - - -, f 5;
#X obj 625 130 line;
#X floatatom 650 360 5 0 0 0 - - -, f 5;
#X floatatom 695 360 5 0 0 0 - - -, f 5;
#X obj 670 520 readsf~;
#X msg 705 440 1;
#X msg 650 440 open ANXIETYIV.wav, f 7;
#X obj 495 335 moses 80;
#X obj 325 520 vu 15 120 empty empty -1 -8 0 10 #404040 #000000 1 0
;
#X obj 375 550 pvu~;
#X obj 350 335 moses 40;
#X obj 470 520 vu 15 120 empty empty -1 -8 0 10 #404040 #000000 1 0
;
#X obj 520 545 pvu~;
#X obj 615 520 vu 15 120 empty empty -1 -8 0 10 #404040 #000000 1 0
;
#X obj 670 545 pvu~;
#X floatatom 795 360 5 0 0 0 - - -, f 5;
#X floatatom 840 360 5 0 0 0 - - -, f 5;
#X obj 815 520 readsf~;
#X msg 795 440 1;
#X obj 760 520 vu 15 120 empty empty -1 -8 0 10 #404040 #000000 1 0
;
#X obj 815 545 pvu~;
#X obj 650 335 moses 80;
#X obj 795 335 moses 40;
#X text 310 650 Backward;
#X text 455 650 Forward;
#X text 610 650 Left;
#X text 750 650 Right;
#X msg 840 440 open ANXIETYVI.wav, f 7;
#X text 465 35 X & Y Data read from MicroBit Accelerometer;
#X text 665 130 Line curve to smooth CC data flow;
#X text 695 80 MIDI Channel #22 / #21;
#X text 855 285 Moses is used to separate CC data into 2 paths. When
X Y data drops below (40) the .wav file is triggered., f 24;
#X text 870 490 The specified .wav file is called here using "open"
and read by using "readsf~"., f 18;
#X msg 535 105 \$1 200;
#X msg 625 105 \$1 200;
#X connect 0 0 27 0;
#X connect 0 0 24 0;
#X connect 1 0 50 0;
#X connect 2 0 7 0;
#X connect 3 0 15 0;
#X connect 6 0 26 0;
#X connect 6 0 5 0;
#X connect 6 0 5 1;
#X connect 7 0 6 0;
#X connect 8 0 0 0;
#X connect 9 0 16 0;
#X connect 10 0 12 0;
#X connect 11 0 5 0;
#X connect 11 0 5 1;
#X connect 11 0 29 0;
#X connect 12 0 11 0;
#X connect 13 0 51 0;
#X connect 15 0 6 0;
#X connect 16 0 11 0;
#X connect 17 0 38 0;
#X connect 17 0 39 0;
#X connect 18 0 17 0;
#X connect 19 0 23 0;
#X connect 20 0 22 0;
#X connect 21 0 31 0;
#X connect 21 0 5 0;
#X connect 21 0 5 1;
#X connect 22 0 21 0;
#X connect 23 0 21 0;
#X connect 24 0 9 0;
#X connect 24 1 10 0;
#X connect 26 0 25 0;
#X connect 27 0 2 0;
#X connect 27 1 3 0;
#X connect 29 0 28 0;
#X connect 31 0 30 0;
#X connect 32 0 35 0;
#X connect 33 0 44 0;
#X connect 34 0 37 0;
#X connect 34 0 5 0;
#X connect 34 0 5 1;
#X connect 35 0 34 0;
#X connect 37 0 36 0;
#X connect 38 0 19 0;
#X connect 38 1 20 0;
#X connect 39 0 32 0;
#X connect 39 1 33 0;
#X connect 44 0 34 0;
#X connect 50 0 8 0;
#X connect 51 0 18 0;
